<svg width="300" height="45" viewBox="0 0 300 45" fill="none" xmlns="http://www.w3.org/2000/svg">
<rect width="300" height="45" rx="6" fill="white"/>
<path d="M123.922 17.4062H115.07V16.2031H123.922V17.4062ZM126.281 23.4141H113.516V22.2031H126.281V23.4141ZM120.602 29.3516H119.117V23.0234H120.602V29.3516ZM124.656 17.4375C124.656 18.1146 124.648 18.6979 124.633 19.1875C124.617 19.6719 124.568 20.2344 124.484 20.875C124.406 21.5104 124.281 22.2005 124.109 22.9453L122.641 22.7734C122.812 22.0599 122.938 21.3932 123.016 20.7734C123.094 20.1536 123.141 19.6042 123.156 19.125C123.172 18.6458 123.18 18.0859 123.18 17.4453V16.2031H124.656V17.4375ZM138 17.1172H128.945V15.9219H138V17.1172ZM140.156 21.6484H127.344V20.4688H140.156V21.6484ZM138.531 16.8359C138.531 17.5495 138.51 18.2057 138.469 18.8047C138.427 19.3984 138.323 20.0703 138.156 20.8203L136.695 20.6641C136.852 19.9297 136.951 19.2812 136.992 18.7188C137.034 18.151 137.055 17.5234 137.055 16.8359V15.9219H138.531V16.8359ZM138.547 26.5781H130.344V28.3828H128.859V25.4297H137.07V24.0859H128.844V22.9219H138.547V26.5781ZM138.906 29.1797H128.859V28H138.906V29.1797ZM157.891 27.6484H145.078V26.4219H157.891V27.6484ZM152.18 26.9453H150.727V23.5312H152.18V26.9453ZM156.32 20.6875H148.117V23.375H146.641V19.5H154.859V17.5312H146.617V16.3203H156.32V20.6875ZM156.648 23.9531H146.641V22.7344H156.648V23.9531ZM169.32 17.9609H160.273V16.75H169.32V17.9609ZM171.672 27.3359H158.906V26.1172H171.672V27.3359ZM170 18.2422C170 19.0651 169.992 19.776 169.977 20.375C169.961 20.9688 169.917 21.6589 169.844 22.4453C169.771 23.2318 169.651 24.0911 169.484 25.0234L167.977 24.8828C168.154 24.0078 168.281 23.1849 168.359 22.4141C168.443 21.6432 168.492 20.9557 168.508 20.3516C168.523 19.7474 168.531 19.0443 168.531 18.2422V16.75H170V18.2422ZM184.344 25.5156H182.867V15.3359H184.344V25.5156ZM184.766 29.0469H175.195V27.8203H184.766V29.0469ZM176.68 28.2656H175.195V24.4844H176.68V28.2656ZM176.75 16.2812C177.448 16.2812 178.081 16.4297 178.648 16.7266C179.221 17.0182 179.669 17.4297 179.992 17.9609C180.315 18.487 180.477 19.0833 180.477 19.75C180.477 20.4271 180.315 21.0286 179.992 21.5547C179.669 22.0807 179.221 22.4922 178.648 22.7891C178.081 23.0859 177.448 23.2344 176.75 23.2344C176.052 23.2344 175.419 23.0859 174.852 22.7891C174.289 22.4922 173.844 22.0807 173.516 21.5547C173.188 21.0286 173.023 20.4271 173.023 19.75C173.023 19.0833 173.188 18.487 173.516 17.9609C173.844 17.4297 174.289 17.0182 174.852 16.7266C175.419 16.4297 176.052 16.2812 176.75 16.2812ZM176.75 17.5781C176.323 17.5781 175.935 17.6693 175.586 17.8516C175.237 18.0339 174.964 18.2891 174.766 18.6172C174.573 18.9453 174.477 19.3229 174.477 19.75C174.477 20.1771 174.573 20.5573 174.766 20.8906C174.964 21.224 175.237 21.4818 175.586 21.6641C175.935 21.8464 176.323 21.9375 176.75 21.9375C177.177 21.9375 177.562 21.8464 177.906 21.6641C178.25 21.4818 178.521 21.224 178.719 20.8906C178.917 20.5573 179.016 20.1771 179.016 19.75C179.016 19.3229 178.917 18.9453 178.719 18.6172C178.521 18.2891 178.25 18.0339 177.906 17.8516C177.562 17.6693 177.177 17.5781 176.75 17.5781Z" fill="black"/>
<path d="M35.7504 23.2456C35.7504 22.5134 35.6845 21.8128 35.562 21.1392H26.0854V24.9988L31.5432 25C31.3218 26.2842 30.6094 27.3789 29.5179 28.1087V30.6128H32.7666C34.6636 28.869 35.7504 26.2912 35.7504 23.2456Z" fill="#4285F4"/>
<path d="M29.519 28.1088C28.6147 28.7146 27.4501 29.069 26.0877 29.069C23.456 29.069 21.2235 27.3076 20.4239 24.9333H17.0728V27.5158C18.733 30.7883 22.1455 33.0339 26.0877 33.0339C28.8125 33.0339 31.1016 32.1439 32.7677 30.6117L29.519 28.1088Z" fill="#34A853"/>
<path d="M20.1083 23.0176C20.1083 22.3509 20.2202 21.7065 20.4239 21.1006V18.5182H17.0727C16.3862 19.8714 16 21.3989 16 23.0176C16 24.6363 16.3874 26.1638 17.0727 27.517L20.4239 24.9346C20.2202 24.3287 20.1083 23.6843 20.1083 23.0176Z" fill="#FABB05"/>
<path d="M26.0877 16.9649C27.5749 16.9649 28.9067 17.4737 29.9582 18.4678L32.8372 15.6105C31.0886 13.993 28.809 13 26.0877 13C22.1466 13 18.733 15.2456 17.0728 18.5181L20.4239 21.1006C21.2235 18.7263 23.456 16.9649 26.0877 16.9649Z" fill="#E94235"/>
</svg>
