<svg width="300" height="45" viewBox="0 0 300 45" fill="none" xmlns="http://www.w3.org/2000/svg">
<rect width="300" height="45" rx="6" fill="#FEE500"/>
<ellipse cx="25" cy="21.1764" rx="9" ry="6.88235" fill="black"/>
<path d="M19 30.7059L19.5 25.9412L23 27.5294L19 30.7059Z" fill="black"/>
<path d="M113.789 16.7422C113.789 18.2422 113.602 19.6068 113.227 20.8359C112.857 22.0651 112.203 23.2083 111.266 24.2656C110.333 25.3229 109.047 26.2604 107.406 27.0781L106.586 25.9453C108.029 25.2422 109.172 24.4401 110.016 23.5391C110.865 22.6328 111.466 21.6432 111.82 20.5703C112.174 19.4974 112.352 18.2812 112.352 16.9219V16.7422H113.789ZM113.227 17.9531H107.398V16.7422H113.227V17.9531ZM106.898 21.8516L106.68 20.5703L112.219 20.2109V21.3516L106.898 21.8516ZM117.422 29.3125H115.945V15.3203H117.422V29.3125ZM119.594 22.1484H117.039V20.9141H119.594V22.1484ZM127.617 16.7422C127.617 18.2422 127.43 19.6068 127.055 20.8359C126.685 22.0651 126.031 23.2083 125.094 24.2656C124.161 25.3229 122.875 26.2604 121.234 27.0781L120.414 25.9453C121.857 25.2422 123 24.4401 123.844 23.5391C124.693 22.6328 125.294 21.6432 125.648 20.5703C126.003 19.4974 126.18 18.2812 126.18 16.9219V16.7422H127.617ZM127.055 17.9531H121.227V16.7422H127.055V17.9531ZM120.727 21.8516L120.508 20.5703L126.047 20.2109V21.3516L120.727 21.8516ZM131.25 29.3125H129.773V15.3203H131.25V29.3125ZM133.422 22.1484H130.867V20.9141H133.422V22.1484ZM141.273 26.625H139.82V23.2109H141.273V26.625ZM140.555 16.1719C141.544 16.1719 142.432 16.3281 143.219 16.6406C144.005 16.9479 144.617 17.3854 145.055 17.9531C145.497 18.5156 145.719 19.1641 145.719 19.8984C145.719 20.6432 145.497 21.2969 145.055 21.8594C144.617 22.4219 144.005 22.8594 143.219 23.1719C142.432 23.4792 141.544 23.6328 140.555 23.6328C139.56 23.6328 138.669 23.4792 137.883 23.1719C137.102 22.8594 136.49 22.4219 136.047 21.8594C135.604 21.2969 135.383 20.6432 135.383 19.8984C135.383 19.1641 135.604 18.5156 136.047 17.9531C136.49 17.3854 137.102 16.9479 137.883 16.6406C138.669 16.3281 139.56 16.1719 140.555 16.1719ZM140.555 17.375C139.841 17.375 139.201 17.4792 138.633 17.6875C138.065 17.8958 137.622 18.1927 137.305 18.5781C136.992 18.9583 136.836 19.3984 136.836 19.8984C136.836 20.4036 136.992 20.849 137.305 21.2344C137.622 21.6198 138.062 21.9167 138.625 22.125C139.188 22.3333 139.831 22.4401 140.555 22.4453C141.279 22.4401 141.919 22.3333 142.477 22.125C143.039 21.9167 143.479 21.6198 143.797 21.2344C144.115 20.849 144.273 20.4036 144.273 19.8984C144.273 19.3984 144.115 18.9583 143.797 18.5781C143.479 18.1927 143.039 17.8958 142.477 17.6875C141.914 17.4792 141.273 17.375 140.555 17.375ZM146.984 27.5781H134.172V26.3516H146.984V27.5781ZM164.719 27.6484H151.906V26.4219H164.719V27.6484ZM159.008 26.9453H157.555V23.5312H159.008V26.9453ZM163.148 20.6875H154.945V23.375H153.469V19.5H161.688V17.5312H153.445V16.3203H163.148V20.6875ZM163.477 23.9531H153.469V22.7344H163.477V23.9531ZM176.148 17.9609H167.102V16.75H176.148V17.9609ZM178.5 27.3359H165.734V26.1172H178.5V27.3359ZM176.828 18.2422C176.828 19.0651 176.82 19.776 176.805 20.375C176.789 20.9688 176.745 21.6589 176.672 22.4453C176.599 23.2318 176.479 24.0911 176.312 25.0234L174.805 24.8828C174.982 24.0078 175.109 23.1849 175.188 22.4141C175.271 21.6432 175.32 20.9557 175.336 20.3516C175.352 19.7474 175.359 19.0443 175.359 18.2422V16.75H176.828V18.2422ZM191.172 25.5156H189.695V15.3359H191.172V25.5156ZM191.594 29.0469H182.023V27.8203H191.594V29.0469ZM183.508 28.2656H182.023V24.4844H183.508V28.2656ZM183.578 16.2812C184.276 16.2812 184.909 16.4297 185.477 16.7266C186.049 17.0182 186.497 17.4297 186.82 17.9609C187.143 18.487 187.305 19.0833 187.305 19.75C187.305 20.4271 187.143 21.0286 186.82 21.5547C186.497 22.0807 186.049 22.4922 185.477 22.7891C184.909 23.0859 184.276 23.2344 183.578 23.2344C182.88 23.2344 182.247 23.0859 181.68 22.7891C181.117 22.4922 180.672 22.0807 180.344 21.5547C180.016 21.0286 179.852 20.4271 179.852 19.75C179.852 19.0833 180.016 18.487 180.344 17.9609C180.672 17.4297 181.117 17.0182 181.68 16.7266C182.247 16.4297 182.88 16.2812 183.578 16.2812ZM183.578 17.5781C183.151 17.5781 182.763 17.6693 182.414 17.8516C182.065 18.0339 181.792 18.2891 181.594 18.6172C181.401 18.9453 181.305 19.3229 181.305 19.75C181.305 20.1771 181.401 20.5573 181.594 20.8906C181.792 21.224 182.065 21.4818 182.414 21.6641C182.763 21.8464 183.151 21.9375 183.578 21.9375C184.005 21.9375 184.391 21.8464 184.734 21.6641C185.078 21.4818 185.349 21.224 185.547 20.8906C185.745 20.5573 185.844 20.1771 185.844 19.75C185.844 19.3229 185.745 18.9453 185.547 18.6172C185.349 18.2891 185.078 18.0339 184.734 17.8516C184.391 17.6693 184.005 17.5781 183.578 17.5781Z" fill="black"/>
</svg>
