<svg width="19" height="17" viewBox="0 0 19 17" fill="none" xmlns="http://www.w3.org/2000/svg">
<path fill-rule="evenodd" clip-rule="evenodd" d="M1.2 2.4H17.2C17.5183 2.4 17.8235 2.27357 18.0485 2.04853C18.2736 1.82348 18.4 1.51826 18.4 1.2C18.4 0.88174 18.2736 0.576516 18.0485 0.351472C17.8235 0.126428 17.5183 0 17.2 0H1.2C0.88174 0 0.576516 0.126428 0.351472 0.351472C0.126428 0.576516 0 0.88174 0 1.2C0 1.51826 0.126428 1.82348 0.351472 2.04853C0.576516 2.27357 0.88174 2.4 1.2 2.4ZM17.2 7H1.2C0.88174 7 0.576516 7.12643 0.351472 7.35147C0.126428 7.57652 0 7.88174 0 8.2C0 8.51826 0.126428 8.82348 0.351472 9.04853C0.576516 9.27357 0.88174 9.4 1.2 9.4H17.2C17.5183 9.4 17.8235 9.27357 18.0485 9.04853C18.2736 8.82348 18.4 8.51826 18.4 8.2C18.4 7.88174 18.2736 7.57652 18.0485 7.35147C17.8235 7.12643 17.5183 7 17.2 7ZM17.2 14H1.2C1.04241 14 0.886371 14.031 0.74078 14.0913C0.595189 14.1516 0.462902 14.24 0.351472 14.3515C0.240042 14.4629 0.15165 14.5952 0.0913446 14.7408C0.0310389 14.8864 0 15.0424 0 15.2C0 15.3576 0.0310389 15.5136 0.0913446 15.6592C0.15165 15.8048 0.240042 15.9371 0.351472 16.0485C0.462902 16.16 0.595189 16.2484 0.74078 16.3087C0.886371 16.369 1.04241 16.4 1.2 16.4H17.2C17.3576 16.4 17.5136 16.369 17.6592 16.3087C17.8048 16.2484 17.9371 16.16 18.0485 16.0485C18.16 15.9371 18.2484 15.8048 18.3087 15.6592C18.369 15.5136 18.4 15.3576 18.4 15.2C18.4 15.0424 18.369 14.8864 18.3087 14.7408C18.2484 14.5952 18.16 14.4629 18.0485 14.3515C17.9371 14.24 17.8048 14.1516 17.6592 14.0913C17.5136 14.031 17.3576 14 17.2 14Z" fill="black"/>
</svg>
